<svg width="262" height="51" viewBox="0 0 262 51" fill="none" xmlns="http://www.w3.org/2000/svg">
<path d="M151.84 32.6C151.84 30.952 152.208 29.48 152.944 28.184C153.696 26.872 154.712 25.856 155.992 25.136C157.288 24.4 158.736 24.032 160.336 24.032C162.208 24.032 163.848 24.512 165.256 25.472C166.664 26.432 167.648 27.76 168.208 29.456H164.344C163.96 28.656 163.416 28.056 162.712 27.656C162.024 27.256 161.224 27.056 160.312 27.056C159.336 27.056 158.464 27.288 157.696 27.752C156.944 28.2 156.352 28.84 155.92 29.672C155.504 30.504 155.296 31.48 155.296 32.6C155.296 33.704 155.504 34.68 155.92 35.528C156.352 36.36 156.944 37.008 157.696 37.472C158.464 37.92 159.336 38.144 160.312 38.144C161.224 38.144 162.024 37.944 162.712 37.544C163.416 37.128 163.96 36.52 164.344 35.72H168.208C167.648 37.432 166.664 38.768 165.256 39.728C163.864 40.672 162.224 41.144 160.336 41.144C158.736 41.144 157.288 40.784 155.992 40.064C154.712 39.328 153.696 38.312 152.944 37.016C152.208 35.72 151.84 34.248 151.84 32.6ZM176.166 41.216C175.078 41.216 174.102 41.024 173.238 40.64C172.374 40.24 171.686 39.704 171.174 39.032C170.678 38.36 170.406 37.616 170.358 36.8H173.742C173.806 37.312 174.054 37.736 174.486 38.072C174.934 38.408 175.486 38.576 176.142 38.576C176.782 38.576 177.278 38.448 177.63 38.192C177.998 37.936 178.182 37.608 178.182 37.208C178.182 36.776 177.958 36.456 177.51 36.248C177.078 36.024 176.382 35.784 175.422 35.528C174.43 35.288 173.614 35.04 172.974 34.784C172.35 34.528 171.806 34.136 171.342 33.608C170.894 33.08 170.67 32.368 170.67 31.472C170.67 30.736 170.878 30.064 171.294 29.456C171.726 28.848 172.334 28.368 173.118 28.016C173.918 27.664 174.854 27.488 175.926 27.488C177.51 27.488 178.774 27.888 179.718 28.688C180.662 29.472 181.182 30.536 181.278 31.88H178.062C178.014 31.352 177.79 30.936 177.39 30.632C177.006 30.312 176.486 30.152 175.83 30.152C175.222 30.152 174.75 30.264 174.414 30.488C174.094 30.712 173.934 31.024 173.934 31.424C173.934 31.872 174.158 32.216 174.606 32.456C175.054 32.68 175.75 32.912 176.694 33.152C177.654 33.392 178.446 33.64 179.07 33.896C179.694 34.152 180.23 34.552 180.678 35.096C181.142 35.624 181.382 36.328 181.398 37.208C181.398 37.976 181.182 38.664 180.75 39.272C180.334 39.88 179.726 40.36 178.926 40.712C178.142 41.048 177.222 41.216 176.166 41.216ZM193.66 32.408C194.604 32.584 195.38 33.056 195.988 33.824C196.596 34.592 196.9 35.472 196.9 36.464C196.9 37.36 196.676 38.152 196.228 38.84C195.796 39.512 195.164 40.04 194.332 40.424C193.5 40.808 192.516 41 191.38 41H184.156V24.248H191.068C192.204 24.248 193.18 24.432 193.996 24.8C194.828 25.168 195.452 25.68 195.868 26.336C196.3 26.992 196.516 27.736 196.516 28.568C196.516 29.544 196.252 30.36 195.724 31.016C195.212 31.672 194.524 32.136 193.66 32.408ZM187.516 31.16H190.588C191.388 31.16 192.004 30.984 192.436 30.632C192.868 30.264 193.084 29.744 193.084 29.072C193.084 28.4 192.868 27.88 192.436 27.512C192.004 27.144 191.388 26.96 190.588 26.96H187.516V31.16ZM190.9 38.264C191.716 38.264 192.348 38.072 192.796 37.688C193.26 37.304 193.492 36.76 193.492 36.056C193.492 35.336 193.252 34.776 192.772 34.376C192.292 33.96 191.644 33.752 190.828 33.752H187.516V38.264H190.9ZM202.938 29.768C203.37 29.064 203.93 28.512 204.618 28.112C205.322 27.712 206.122 27.512 207.018 27.512V31.04H206.13C205.074 31.04 204.274 31.288 203.73 31.784C203.202 32.28 202.938 33.144 202.938 34.376V41H199.578V27.704H202.938V29.768ZM210.985 26.12C210.393 26.12 209.897 25.936 209.497 25.568C209.113 25.184 208.921 24.712 208.921 24.152C208.921 23.592 209.113 23.128 209.497 22.76C209.897 22.376 210.393 22.184 210.985 22.184C211.577 22.184 212.065 22.376 212.449 22.76C212.849 23.128 213.049 23.592 213.049 24.152C213.049 24.712 212.849 25.184 212.449 25.568C212.065 25.936 211.577 26.12 210.985 26.12ZM212.641 27.704V41H209.281V27.704H212.641ZM215.097 34.304C215.097 32.96 215.361 31.768 215.889 30.728C216.433 29.688 217.169 28.888 218.097 28.328C219.025 27.768 220.057 27.488 221.193 27.488C222.057 27.488 222.881 27.68 223.665 28.064C224.449 28.432 225.073 28.928 225.537 29.552V23.24H228.945V41H225.537V39.032C225.121 39.688 224.537 40.216 223.785 40.616C223.033 41.016 222.161 41.216 221.169 41.216C220.049 41.216 219.025 40.928 218.097 40.352C217.169 39.776 216.433 38.968 215.889 37.928C215.361 36.872 215.097 35.664 215.097 34.304ZM225.561 34.352C225.561 33.536 225.401 32.84 225.081 32.264C224.761 31.672 224.329 31.224 223.785 30.92C223.241 30.6 222.657 30.44 222.033 30.44C221.409 30.44 220.833 30.592 220.305 30.896C219.777 31.2 219.345 31.648 219.009 32.24C218.689 32.816 218.529 33.504 218.529 34.304C218.529 35.104 218.689 35.808 219.009 36.416C219.345 37.008 219.777 37.464 220.305 37.784C220.849 38.104 221.425 38.264 222.033 38.264C222.657 38.264 223.241 38.112 223.785 37.808C224.329 37.488 224.761 37.04 225.081 36.464C225.401 35.872 225.561 35.168 225.561 34.352ZM237.434 27.488C238.426 27.488 239.298 27.688 240.05 28.088C240.802 28.472 241.394 28.976 241.826 29.6V27.704H245.21V41.096C245.21 42.328 244.962 43.424 244.466 44.384C243.97 45.36 243.226 46.128 242.234 46.688C241.242 47.264 240.042 47.552 238.634 47.552C236.746 47.552 235.194 47.112 233.978 46.232C232.778 45.352 232.098 44.152 231.938 42.632H235.274C235.45 43.24 235.826 43.72 236.402 44.072C236.994 44.44 237.706 44.624 238.538 44.624C239.514 44.624 240.306 44.328 240.914 43.736C241.522 43.16 241.826 42.28 241.826 41.096V39.032C241.394 39.656 240.794 40.176 240.026 40.592C239.274 41.008 238.41 41.216 237.434 41.216C236.314 41.216 235.29 40.928 234.362 40.352C233.434 39.776 232.698 38.968 232.154 37.928C231.626 36.872 231.362 35.664 231.362 34.304C231.362 32.96 231.626 31.768 232.154 30.728C232.698 29.688 233.426 28.888 234.338 28.328C235.266 27.768 236.298 27.488 237.434 27.488ZM241.826 34.352C241.826 33.536 241.666 32.84 241.346 32.264C241.026 31.672 240.594 31.224 240.05 30.92C239.506 30.6 238.922 30.44 238.298 30.44C237.674 30.44 237.098 30.592 236.57 30.896C236.042 31.2 235.61 31.648 235.274 32.24C234.954 32.816 234.794 33.504 234.794 34.304C234.794 35.104 234.954 35.808 235.274 36.416C235.61 37.008 236.042 37.464 236.57 37.784C237.114 38.104 237.69 38.264 238.298 38.264C238.922 38.264 239.506 38.112 240.05 37.808C240.594 37.488 241.026 37.04 241.346 36.464C241.666 35.872 241.826 35.168 241.826 34.352ZM260.852 34.064C260.852 34.544 260.82 34.976 260.756 35.36H251.036C251.116 36.32 251.452 37.072 252.044 37.616C252.636 38.16 253.364 38.432 254.228 38.432C255.476 38.432 256.364 37.896 256.892 36.824H260.516C260.132 38.104 259.396 39.16 258.308 39.992C257.22 40.808 255.884 41.216 254.3 41.216C253.02 41.216 251.868 40.936 250.844 40.376C249.836 39.8 249.044 38.992 248.468 37.952C247.908 36.912 247.628 35.712 247.628 34.352C247.628 32.976 247.908 31.768 248.468 30.728C249.028 29.688 249.812 28.888 250.82 28.328C251.828 27.768 252.988 27.488 254.3 27.488C255.564 27.488 256.692 27.76 257.684 28.304C258.692 28.848 259.468 29.624 260.012 30.632C260.572 31.624 260.852 32.768 260.852 34.064ZM257.372 33.104C257.356 32.24 257.044 31.552 256.436 31.04C255.828 30.512 255.084 30.248 254.204 30.248C253.372 30.248 252.668 30.504 252.092 31.016C251.532 31.512 251.188 32.208 251.06 33.104H257.372Z" fill="#454545"/>
<path fill-rule="evenodd" clip-rule="evenodd" d="M32.6499 2.98742C31.5014 2.98742 30.5704 3.9264 30.5704 5.08468C30.5704 6.24296 31.5014 7.18194 32.6499 7.18194C33.7983 7.18194 34.7293 6.24296 34.7293 5.08468C34.7293 3.9264 33.7983 2.98742 32.6499 2.98742ZM28.2191 5.08468C28.2191 2.61669 30.2028 0.615993 32.6499 0.615993C35.0969 0.615993 37.0806 2.61669 37.0806 5.08468C37.0806 7.55267 35.0969 9.55337 32.6499 9.55337C30.2028 9.55337 28.2191 7.55267 28.2191 5.08468Z" fill="#126CFF"/>
<path fill-rule="evenodd" clip-rule="evenodd" d="M32.6499 29.8245C31.5014 29.8245 30.5704 30.7634 30.5704 31.9217C30.5704 33.08 31.5014 34.019 32.6499 34.019C33.7983 34.019 34.7293 33.08 34.7293 31.9217C34.7293 30.7634 33.7983 29.8245 32.6499 29.8245ZM28.2191 31.9217C28.2191 29.4537 30.2028 27.453 32.6499 27.453C35.0969 27.453 37.0806 29.4537 37.0806 31.9217C37.0806 34.3897 35.0969 36.3904 32.6499 36.3904C30.2028 36.3904 28.2191 34.3897 28.2191 31.9217Z" fill="#126CFF"/>
<path fill-rule="evenodd" clip-rule="evenodd" d="M31.4742 28.6388V8.36766H33.8255V28.6388H31.4742Z" fill="#126CFF"/>
<path fill-rule="evenodd" clip-rule="evenodd" d="M30.4337 34.3362L32.0345 36.0732L29.2076 38.7231V46.777H26.8563V37.6897L30.4337 34.3362Z" fill="#126CFF"/>
<path fill-rule="evenodd" clip-rule="evenodd" d="M35.8908 38.4315L33.0609 35.7817L34.6607 34.0438L38.2421 37.3973V46.5954H35.8908V38.4315Z" fill="#126CFF"/>
<path fill-rule="evenodd" clip-rule="evenodd" d="M88.5514 2.37143C87.4029 2.37143 86.4719 3.3104 86.4719 4.46869C86.4719 5.62697 87.4029 6.56594 88.5514 6.56594C89.6998 6.56594 90.6308 5.62697 90.6308 4.46869C90.6308 3.3104 89.6998 2.37143 88.5514 2.37143ZM84.1206 4.46869C84.1206 2.0007 86.1043 0 88.5514 0C90.9984 0 92.9821 2.0007 92.9821 4.46869C92.9821 6.93667 90.9984 8.93737 88.5514 8.93737C86.1043 8.93737 84.1206 6.93667 84.1206 4.46869Z" fill="#126CFF"/>
<path fill-rule="evenodd" clip-rule="evenodd" d="M88.5514 29.2085C87.4029 29.2085 86.4719 30.1475 86.4719 31.3057C86.4719 32.464 87.4029 33.403 88.5514 33.403C89.6998 33.403 90.6308 32.464 90.6308 31.3057C90.6308 30.1475 89.6998 29.2085 88.5514 29.2085ZM84.1206 31.3057C84.1206 28.8378 86.1043 26.8371 88.5514 26.8371C90.9984 26.8371 92.9821 28.8378 92.9821 31.3057C92.9821 33.7737 90.9984 35.7744 88.5514 35.7744C86.1043 35.7744 84.1206 33.7737 84.1206 31.3057Z" fill="#126CFF"/>
<path fill-rule="evenodd" clip-rule="evenodd" d="M87.3757 28.0228V7.75167H89.727V28.0228H87.3757Z" fill="#126CFF"/>
<path fill-rule="evenodd" clip-rule="evenodd" d="M86.3393 33.7197L87.9391 35.4577L85.1092 38.1075V46.2109H82.7579V37.0733L86.3393 33.7197Z" fill="#126CFF"/>
<path fill-rule="evenodd" clip-rule="evenodd" d="M91.7923 37.8151L88.9655 35.1652L90.5662 33.4282L94.1436 36.7817V46.2892H91.7923V37.8151Z" fill="#126CFF"/>
<path fill-rule="evenodd" clip-rule="evenodd" d="M60.3068 36.2729H84.6219V38.6443H61.3533L57.4416 43.024H37.6737V40.6526H56.395L60.3068 36.2729Z" fill="#126CFF"/>
<path fill-rule="evenodd" clip-rule="evenodd" d="M66.0905 42.0092H84.1559V44.3806H66.0905V42.0092Z" fill="#126CFF"/>
<path fill-rule="evenodd" clip-rule="evenodd" d="M37.0665 36.2765H52.7029V38.6479H37.0665V36.2765Z" fill="#126CFF"/>
<path fill-rule="evenodd" clip-rule="evenodd" d="M64.8901 42.7392C64.6405 42.7392 64.4382 42.9432 64.4382 43.1949C64.4382 43.4467 64.6405 43.6507 64.8901 43.6507C65.1397 43.6507 65.342 43.4467 65.342 43.1949C65.342 42.9432 65.1397 42.7392 64.8901 42.7392ZM62.0869 43.1949C62.0869 41.6335 63.3419 40.3677 64.8901 40.3677C66.4383 40.3677 67.6933 41.6335 67.6933 43.1949C67.6933 44.7564 66.4383 46.0221 64.8901 46.0221C63.3419 46.0221 62.0869 44.7564 62.0869 43.1949Z" fill="#126CFF"/>
<path fill-rule="evenodd" clip-rule="evenodd" d="M64.5477 32.1603C64.2981 32.1603 64.0958 32.3644 64.0958 32.6161C64.0958 32.8678 64.2981 33.0719 64.5477 33.0719C64.7973 33.0719 64.9996 32.8678 64.9996 32.6161C64.9996 32.3644 64.7973 32.1603 64.5477 32.1603ZM61.7445 32.6161C61.7445 31.0547 62.9995 29.7889 64.5477 29.7889C66.0958 29.7889 67.3509 31.0547 67.3509 32.6161C67.3509 34.1775 66.0958 35.4433 64.5477 35.4433C62.9995 35.4433 61.7445 34.1775 61.7445 32.6161Z" fill="#126CFF"/>
<path fill-rule="evenodd" clip-rule="evenodd" d="M72.2441 27.7557C71.9945 27.7557 71.7922 27.9598 71.7922 28.2115C71.7922 28.4632 71.9945 28.6673 72.2441 28.6673C72.4937 28.6673 72.696 28.4632 72.696 28.2115C72.696 27.9598 72.4937 27.7557 72.2441 27.7557ZM69.4409 28.2115C69.4409 26.6501 70.6959 25.3843 72.2441 25.3843C73.7922 25.3843 75.0473 26.6501 75.0473 28.2115C75.0473 29.7729 73.7922 31.0387 72.2441 31.0387C70.6959 31.0387 69.4409 29.7729 69.4409 28.2115Z" fill="#126CFF"/>
<path fill-rule="evenodd" clip-rule="evenodd" d="M53.575 36.5934C53.3254 36.5934 53.1231 36.7974 53.1231 37.0491C53.1231 37.3009 53.3254 37.5049 53.575 37.5049C53.8246 37.5049 54.0269 37.3009 54.0269 37.0491C54.0269 36.7974 53.8246 36.5934 53.575 36.5934ZM50.7718 37.0491C50.7718 35.4877 52.0268 34.2219 53.575 34.2219C55.1231 34.2219 56.3782 35.4877 56.3782 37.0491C56.3782 38.6106 55.1231 39.8763 53.575 39.8763C52.0268 39.8763 50.7718 38.6106 50.7718 37.0491Z" fill="#126CFF"/>
<path fill-rule="evenodd" clip-rule="evenodd" d="M76.5195 37.0492V22.3506H78.8708V37.0492H76.5195Z" fill="#126CFF"/>
<path fill-rule="evenodd" clip-rule="evenodd" d="M71.0685 37.7862V29.3295H73.4198V37.7862H71.0685Z" fill="#126CFF"/>
<path fill-rule="evenodd" clip-rule="evenodd" d="M63.372 37.7649V34.3466H65.7233V37.7649H63.372Z" fill="#126CFF"/>
<path fill-rule="evenodd" clip-rule="evenodd" d="M98.6662 35.6106C98.4166 35.6106 98.2143 35.8147 98.2143 36.0664C98.2143 36.3181 98.4166 36.5222 98.6662 36.5222C98.9158 36.5222 99.1181 36.3181 99.1181 36.0664C99.1181 35.8147 98.9158 35.6106 98.6662 35.6106ZM95.863 36.0664C95.863 34.505 97.1181 33.2392 98.6662 33.2392C100.214 33.2392 101.469 34.505 101.469 36.0664C101.469 37.6278 100.214 38.8936 98.6662 38.8936C97.1181 38.8936 95.863 37.6278 95.863 36.0664Z" fill="#126CFF"/>
<path fill-rule="evenodd" clip-rule="evenodd" d="M97.4905 41.2152V37.7969H99.8418V41.2152H97.4905Z" fill="#126CFF"/>
<path fill-rule="evenodd" clip-rule="evenodd" d="M79.9689 19.0513C80.6723 18.1819 81.2134 17.3399 81.6286 16.5888L83.6823 17.7435C83.2079 18.6018 82.591 19.5615 81.7905 20.5508L81.7904 20.5509C80.4699 22.1824 79.0867 23.3457 77.9656 24.1474L76.6056 22.2129C77.5957 21.5049 78.8109 20.482 79.9688 19.0514" fill="#126CFF"/>
<path fill-rule="evenodd" clip-rule="evenodd" d="M40.1498 18.9842C39.4464 18.1148 38.9053 17.2728 38.4901 16.5217L36.4364 17.6765C36.9108 18.5347 37.5278 19.4944 38.3282 20.4837L38.3283 20.4838C39.6488 22.1153 41.032 23.2787 42.1531 24.0804L43.5131 22.1459C42.523 21.4378 41.3078 20.415 40.1499 18.9843" fill="#126CFF"/>
<path fill-rule="evenodd" clip-rule="evenodd" d="M81.328 28.2043V17.6931H83.6793V28.2043H81.328Z" fill="#126CFF"/>
<path fill-rule="evenodd" clip-rule="evenodd" d="M93.0033 28.2329V17.7181H95.3546V28.2329H93.0033Z" fill="#126CFF"/>
<path fill-rule="evenodd" clip-rule="evenodd" d="M32.5722 2.98742C31.4237 2.98742 30.4927 3.9264 30.4927 5.08468C30.4927 6.24296 31.4237 7.18194 32.5722 7.18194C33.7206 7.18194 34.6516 6.24296 34.6516 5.08468C34.6516 3.9264 33.7206 2.98742 32.5722 2.98742ZM28.1414 5.08468C28.1414 2.61669 30.1251 0.615993 32.5722 0.615993C35.0192 0.615993 37.0029 2.61669 37.0029 5.08468C37.0029 7.55267 35.0192 9.55337 32.5722 9.55337C30.1251 9.55337 28.1414 7.55267 28.1414 5.08468Z" fill="#126CFF"/>
<path fill-rule="evenodd" clip-rule="evenodd" d="M3.73171 40.2645C2.96933 40.2645 2.3513 40.8878 2.3513 41.6567C2.3513 42.4256 2.96933 43.0489 3.73171 43.0489C4.49409 43.0489 5.11213 42.4256 5.11213 41.6567C5.11213 40.8878 4.4941 40.2645 3.73171 40.2645ZM0 41.6567C0 39.5781 1.67074 37.893 3.73171 37.893C5.79268 37.893 7.46342 39.5781 7.46342 41.6567C7.46342 43.7353 5.79268 45.4204 3.73171 45.4204C1.67074 45.4204 0 43.7353 0 41.6567Z" fill="#126CFF"/>
<path fill-rule="evenodd" clip-rule="evenodd" d="M117.268 35.4504C116.506 35.4504 115.888 36.0737 115.888 36.8426C115.888 37.6116 116.506 38.2349 117.268 38.2349C118.031 38.2349 118.649 37.6116 118.649 36.8426C118.649 36.0737 118.031 35.4504 117.268 35.4504ZM113.537 36.8426C113.537 34.764 115.207 33.079 117.268 33.079C119.329 33.079 121 34.764 121 36.8426C121 38.9213 119.329 40.6063 117.268 40.6063C115.207 40.6063 113.537 38.9213 113.537 36.8426Z" fill="#126CFF"/>
<path fill-rule="evenodd" clip-rule="evenodd" d="M31.3965 28.6388V8.36766H33.7478V28.6388H31.3965Z" fill="#126CFF"/>
<path fill-rule="evenodd" clip-rule="evenodd" d="M48.2369 27.7557C47.9873 27.7557 47.785 27.9598 47.785 28.2115C47.785 28.4632 47.9873 28.6673 48.2369 28.6673C48.4864 28.6673 48.6888 28.4632 48.6888 28.2115C48.6888 27.9598 48.4864 27.7557 48.2369 27.7557ZM45.4337 28.2115C45.4337 26.6501 46.6887 25.3843 48.2369 25.3843C49.785 25.3843 51.04 26.6501 51.04 28.2115C51.04 29.7729 49.785 31.0387 48.2369 31.0387C46.6887 31.0387 45.4337 29.7729 45.4337 28.2115Z" fill="#126CFF"/>
<path fill-rule="evenodd" clip-rule="evenodd" d="M41.236 37.0492V22.3506H43.5873V37.0492H41.236Z" fill="#126CFF"/>
<path fill-rule="evenodd" clip-rule="evenodd" d="M47.0612 37.7862V29.3295H49.4125V37.7862H47.0612Z" fill="#126CFF"/>
<path fill-rule="evenodd" clip-rule="evenodd" d="M36.4275 28.2043V17.6931H38.7788V28.2043H36.4275Z" fill="#126CFF"/>
<path fill-rule="evenodd" clip-rule="evenodd" d="M109.224 35.6366L115.25 35.8643L115.162 38.2341L110.258 38.0487L106.488 42.408H92.968V40.0366H105.419L109.224 35.6366Z" fill="#126CFF"/>
<path fill-rule="evenodd" clip-rule="evenodd" d="M15.8536 36.2729H29.3735V38.6443H16.9233L13.1386 43.024H5.90646V40.6526H12.0689L15.8536 36.2729Z" fill="#126CFF"/>
<path fill-rule="evenodd" clip-rule="evenodd" d="M92.968 40.0366H105.953V42.408H92.968V40.0366Z" fill="#126CFF"/>
<path fill-rule="evenodd" clip-rule="evenodd" d="M27.3259 47.9627C27.1721 47.9627 27.0469 48.0887 27.0469 48.244V48.6286H38.1715V48.244C38.1715 48.0889 38.0465 47.9627 37.8926 47.9627H27.3259ZM27.3223 45.5913C25.8679 45.5932 24.6956 46.7839 24.6956 48.244V51H40.5228V48.244C40.5228 46.7755 39.3414 45.5913 37.8926 45.5913L27.3223 45.5913Z" fill="#126CFF"/>
<path fill-rule="evenodd" clip-rule="evenodd" d="M83.2698 47.5924C83.116 47.5924 82.9909 47.7184 82.9909 47.8737V48.2583H94.1154V47.8737C94.1154 47.7186 93.9905 47.5924 93.8365 47.5924H83.2698ZM83.2663 45.221C81.8118 45.2229 80.6396 46.4136 80.6396 47.8737V50.6297H96.4667V47.8737C96.4667 46.4051 95.2854 45.221 93.8365 45.221L83.2663 45.221Z" fill="#126CFF"/>
<path fill-rule="evenodd" clip-rule="evenodd" d="M103.189 41.0407V27.1753H105.54V41.0407H103.189Z" fill="#126CFF"/>
<path fill-rule="evenodd" clip-rule="evenodd" d="M93.8564 18.8268C93.5903 18.462 93.3335 18.11 93.0818 17.7739L94.9583 16.3449C95.2322 16.7107 95.5042 17.0829 95.7797 17.4598C97.27 19.4988 98.862 21.6769 101.403 23.746L101.403 23.7461C105.085 26.7445 106.194 27.5135 108.604 28.6294L107.623 30.7846C104.942 29.5433 103.651 28.6246 99.9259 25.5911C97.13 23.3144 95.3476 20.871 93.8564 18.8268Z" fill="#126CFF"/>
<path fill-rule="evenodd" clip-rule="evenodd" d="M16.2296 32.1603C15.98 32.1603 15.7777 32.3644 15.7777 32.6161C15.7777 32.8678 15.98 33.0719 16.2296 33.0719C16.4792 33.0719 16.6815 32.8678 16.6815 32.6161C16.6815 32.3644 16.4792 32.1603 16.2296 32.1603ZM13.4264 32.6161C13.4264 31.0547 14.6814 29.7889 16.2296 29.7889C17.7778 29.7889 19.0328 31.0547 19.0328 32.6161C19.0328 34.1775 17.7778 35.4433 16.2296 35.4433C14.6814 35.4433 13.4264 34.1775 13.4264 32.6161Z" fill="#126CFF"/>
<path fill-rule="evenodd" clip-rule="evenodd" d="M15.054 37.7649V34.3466H17.4053V37.7649H15.054Z" fill="#126CFF"/>
<path fill-rule="evenodd" clip-rule="evenodd" d="M19.5412 28.8488V18.3376H21.8925V28.8488H19.5412Z" fill="#126CFF"/>
<path fill-rule="evenodd" clip-rule="evenodd" d="M9.35223 41.6567V27.7949H11.7035V41.6567H9.35223Z" fill="#126CFF"/>
<path fill-rule="evenodd" clip-rule="evenodd" d="M19.116 18.0758C19.3915 17.6989 19.6636 17.3267 19.9375 16.9609L21.8139 18.3899C21.5623 18.726 21.3055 19.078 21.0394 19.4428C19.5482 21.487 17.7658 23.9304 14.9699 26.2071C11.2449 29.2405 9.95346 30.1593 7.27254 31.4006L6.29153 29.2454C8.70156 28.1295 9.8108 27.3605 13.4928 24.3621L13.4928 24.362C16.0338 22.2929 17.6257 20.1149 19.116 18.0758Z" fill="#126CFF"/>
<path fill-rule="evenodd" clip-rule="evenodd" d="M109.335 30.1859C109.147 30.1859 108.995 30.3397 108.995 30.5295C108.995 30.7193 109.147 30.8731 109.335 30.8731C109.523 30.8731 109.676 30.7193 109.676 30.5295C109.676 30.3397 109.523 30.1859 109.335 30.1859ZM107.226 30.5295C107.226 29.3545 108.17 28.402 109.335 28.402C110.5 28.402 111.445 29.3545 111.445 30.5295C111.445 31.7045 110.5 32.657 109.335 32.657C108.17 32.657 107.226 31.7045 107.226 30.5295Z" fill="#126CFF"/>
<path fill-rule="evenodd" clip-rule="evenodd" d="M5.90649 30.631C5.71833 30.631 5.5658 30.7848 5.5658 30.9746C5.5658 31.1644 5.71833 31.3182 5.90649 31.3182C6.09464 31.3182 6.24718 31.1644 6.24718 30.9746C6.24718 30.7848 6.09464 30.631 5.90649 30.631ZM3.79703 30.9746C3.79703 29.7996 4.74146 28.8471 5.90649 28.8471C7.07151 28.8471 8.01595 29.7996 8.01595 30.9746C8.01595 32.1496 7.07151 33.1021 5.90649 33.1021C4.74146 33.1021 3.79703 32.1496 3.79703 30.9746Z" fill="#126CFF"/>
</svg>
